# xmcd
#
# Track frame offsets: 
#        150
#        34022
#        54180
#        70988
#        92922
#        124367
#        144065
#        171624
#        197137
#
# Disc length: 2903 seconds
#
# Revision: 0
# Processed by: cddbd v1.5.2PL0 Copyright (c) Steve Scherf et al.
# Submitted via: ExactAudioCopy v0.99pb5
#
DISCID=800b5509
DTITLE=Elizabeth Lees Cozmic Mojo - Live in Blues Garage CD 01
DYEAR=2006
DGENRE=Blues
TTITLE0=el mojo
TTITLE1=sexyvannah
TTITLE2=lets rock
TTITLE3=naked
TTITLE4=baby aspirin
TTITLE5=mary lou
TTITLE6=am i wrong
TTITLE7=one mans trash
TTITLE8=i just wanna make love
EXTD=
EXTT0=
EXTT1=
EXTT2=
EXTT3=
EXTT4=
EXTT5=
EXTT6=
EXTT7=
EXTT8=
PLAYORDER=
